<svg width="1272" height="395" viewBox="0 0 1272 395" fill="none" xmlns="http://www.w3.org/2000/svg">
<path d="M425.855 11.2L426.055 13.2C426.055 18.6667 425.188 23.3333 423.455 27.2C421.721 28.5333 418.988 29.6 415.255 30.4L448.655 129.2L467.655 131.6C467.655 137.067 466.121 142.867 463.055 149H414.455L412.655 138C418.255 135.867 421.921 134.467 423.655 133.8L415.655 111.2H370.655C366.655 123.067 364.521 129.267 364.255 129.8L378.055 131.6C378.055 134.4 377.521 137.667 376.455 141.4C375.388 145 374.388 147.533 373.455 149H324.855L323.055 138C329.055 135.467 334.455 133.6 339.255 132.4L372.855 29.6C363.921 28.2667 357.188 26.5333 352.655 24.4C352.655 20.5333 353.255 17.1333 354.455 14.2C357.255 13.2667 363.788 12.2 374.055 11C384.455 9.66666 394.321 8.99999 403.655 8.99999C413.121 8.99999 420.521 9.73333 425.855 11.2ZM400.055 66.2L394.255 39.8H392.255L385.855 67.4L376.455 92.4H409.855L400.055 66.2ZM611.706 0.399994C614.24 0.399994 615.84 0.46666 616.506 0.599991C616.506 7.53332 615.64 13.6 613.906 18.8C613.373 33.2 612.706 53.7333 611.906 80.4C611.24 106.933 610.773 124.467 610.506 133C618.373 134.067 624.24 135.2 628.106 136.4V146C619.706 149.6 608.173 151.4 593.506 151.4C592.706 149.933 591.64 146.333 590.306 140.6C578.04 147.267 569.173 150.867 563.706 151.4C550.106 151.4 539.906 146.467 533.106 136.6C526.44 126.733 523.106 114.067 523.106 98.6C523.106 83 526.506 69.9333 533.306 59.4C540.106 48.7333 550.173 43.4 563.506 43.4C570.84 43.4 578.573 45.6667 586.706 50.2L585.706 21C579.44 20.3333 574.173 19.3333 569.906 18C569.906 14.6667 570.373 9.86666 571.306 3.59999C579.173 1.46666 592.64 0.399994 611.706 0.399994ZM566.706 63C555.24 63 549.506 74.0667 549.506 96.2C549.506 108.867 551.773 118.4 556.306 124.8C558.84 128.533 562.106 130.4 566.106 130.4C572.906 130.4 580.573 128.067 589.106 123.4L587.306 71.8C579.706 65.9333 572.84 63 566.706 63ZM708.792 197.4C704.926 197.4 700.659 196.733 695.992 195.4C691.326 194.067 686.326 192.067 680.992 189.4C681.792 174.067 682.526 164.933 683.192 162C688.259 160.667 692.392 160 695.592 160C698.926 160 701.059 160.067 701.992 160.2L708.392 180.2L710.192 180C713.259 179.6 716.392 175.933 719.592 169C722.792 162.067 725.126 155.4 726.592 149H718.192L688.592 66.6L672.992 64.8C672.992 59.3333 674.526 53.5333 677.592 47.4H727.392L729.192 58.4C723.726 60.9333 719.126 62.6667 715.392 63.6L730.592 111L732.392 119.6H736.792L753.792 63.6C749.259 62.8 743.659 61.0667 736.992 58.4L738.792 47.4H788.592C791.659 53.5333 793.192 59.3333 793.192 64.8C787.992 65.6 782.792 66.1333 777.592 66.4C765.592 101.6 756.192 128.8 749.392 148C742.726 167.2 736.659 180.2 731.192 187C725.726 193.933 718.259 197.4 708.792 197.4ZM884.561 0.399994C887.094 0.399994 888.694 0.46666 889.361 0.599991C889.361 7.53332 888.494 13.6 886.761 18.8C886.628 27.0667 886.428 38.7333 886.161 53.8C885.628 86.8667 885.228 112.2 884.961 129.8L900.561 131.6C900.561 137.067 899.028 142.867 895.961 149H846.161L844.361 138C852.628 134.933 858.628 132.933 862.361 132L858.561 21C852.294 20.3333 847.028 19.3333 842.761 18C842.761 13.0667 843.228 8.26666 844.161 3.59999C852.028 1.46666 865.494 0.399994 884.561 0.399994ZM136.852 269.8L136.252 392H110.652L44.6516 284.4C44.1182 323.467 43.7849 352.933 43.6516 372.8L57.4516 374.6C57.4516 380.067 55.9182 385.867 52.8516 392H4.25156L2.45156 381C9.91823 377.933 15.5182 376 19.2516 375.2C19.2516 374.8 18.6516 339.533 17.4516 269.4L0.851563 264.2L2.45156 252H54.4516L112.652 356.4L109.652 269.4L93.0516 264.2L94.6516 252H146.652C146.518 252 146.518 252.133 146.652 252.4C146.918 252.667 147.185 253.267 147.452 254.2C147.852 255 148.252 256 148.652 257.2C149.452 259.333 149.985 262.867 150.252 267.8C143.452 268.867 138.985 269.533 136.852 269.8ZM299.683 289.6C302.216 289.6 303.816 289.667 304.483 289.8C304.483 296.6 303.349 302.467 301.083 307.4C300.283 336.733 299.616 358.4 299.083 372.4C305.083 372.933 310.349 373.933 314.883 375.4L314.483 389.4C306.349 391.933 299.349 393.2 293.483 393.2C287.616 393.2 283.616 393.067 281.483 392.8C279.883 389.6 278.549 386.4 277.483 383.2C266.416 390.667 258.416 394.4 253.483 394.4C229.616 394.4 217.683 382.333 217.683 358.2C217.683 351.667 218.216 335.6 219.283 310C212.216 310 205.749 309.067 199.883 307.2C199.883 303.867 200.349 299.067 201.283 292.8C209.149 290.667 222.616 289.6 241.683 289.6C244.216 289.6 245.816 289.667 246.483 289.8C246.483 296.333 245.349 302.4 243.083 308V348.4C243.083 356.933 243.949 363.2 245.683 367.2C247.549 371.067 251.416 373 257.283 373C263.283 373 269.416 370.933 275.683 366.8L274.483 310C268.616 309.733 263.083 308.8 257.883 307.2C257.883 303.867 258.349 299.067 259.283 292.8C267.149 290.667 280.616 289.6 299.683 289.6ZM428.028 309.6C427.761 308.933 426.428 308.6 424.028 308.6C421.628 308.6 417.495 310.4 411.628 314C411.095 340.133 410.761 359.733 410.628 372.8L426.228 374.8C426.228 380.533 424.695 386.267 421.628 392H371.828L370.028 381C378.295 377.933 384.295 375.933 388.028 375L385.828 310.2C378.895 309.667 373.095 308.667 368.428 307.2L369.828 292.8C373.428 291.2 386.428 290.133 408.828 289.6C410.028 290.8 410.628 293.133 410.628 296.6C422.361 290.867 429.761 288 432.828 288C436.028 288 439.895 288.8 444.428 290.4C449.095 291.867 452.628 293.467 455.028 295.2V298.6C455.028 309.533 453.695 319.667 451.028 329C448.761 329.933 445.761 330.4 442.028 330.4C438.295 330.4 434.828 330.2 431.628 329.8C431.228 328.067 430.028 321.333 428.028 309.6ZM645.672 334.2C645.405 324.867 644.272 318.4 642.272 314.8C640.405 311.2 636.005 309.4 629.072 309.4C622.272 309.4 615.939 310.867 610.072 313.8C610.072 330.867 609.205 350.533 607.472 372.8L623.272 374.6C623.272 380.067 621.739 385.867 618.672 392H568.872L567.072 381C574.005 378.467 580.072 376.467 585.272 375L583.672 333.4C583.405 324.733 582.339 318.6 580.472 315C578.739 311.267 575.339 309.4 570.272 309.4C567.605 309.4 563.739 309.867 558.672 310.8C553.605 311.733 549.739 312.733 547.072 313.8C547.072 314.2 546.472 333.867 545.272 372.8L560.872 374.6C560.872 380.467 559.339 386.267 556.272 392H506.472L504.672 381C512.539 377.933 518.539 375.933 522.672 375L520.072 310.4C514.605 309.867 509.339 308.867 504.272 307.4L505.272 293C507.539 292.333 512.405 291.533 519.872 290.6C527.339 289.667 533.005 289.2 536.872 289.2C537.405 289.6 538.405 290.867 539.872 293C541.339 295 542.339 296.6 542.872 297.8C547.405 295.533 552.872 293.333 559.272 291.2C565.805 289.067 569.805 288 571.272 288C585.405 288 595.739 291.667 602.272 299C607.339 296.333 613.472 293.867 620.672 291.6C627.872 289.2 632.339 288 634.072 288C646.739 288 656.205 291 662.472 297C668.739 303 671.872 313 671.872 327C671.872 334.733 671.272 350 670.072 372.8L685.672 374.6C685.672 380.467 684.139 386.267 681.072 392H631.472L629.672 381C635.939 378.467 641.672 376.467 646.872 375C646.739 371.933 646.605 367.6 646.472 362C646.205 352.8 645.939 343.533 645.672 334.2ZM774.019 394.4C762.685 394.4 753.885 392.067 747.619 387.4C741.485 382.733 738.419 374.867 738.419 363.8C738.419 353.267 742.085 344.667 749.419 338C753.685 334.133 759.619 331.867 767.219 331.2C774.819 330.533 785.285 330.2 798.619 330.2V327C798.619 318.867 797.285 312.933 794.619 309.2C792.085 305.333 787.552 303.4 781.019 303.4C777.685 303.4 774.685 304.067 772.019 305.4L767.219 322.8L752.419 322.4C749.085 317.333 747.285 309.267 747.019 298.2C749.685 296.867 755.952 294.867 765.819 292.2C775.685 289.4 782.019 288 784.819 288C799.219 288 809.685 291 816.219 297C822.752 302.867 826.019 312.267 826.019 325.2C826.019 338 825.419 354.933 824.219 376C831.819 376.667 837.685 377.8 841.819 379.4C841.952 381 842.019 382.933 842.019 385.2L841.819 389.6C832.219 392.8 822.552 394.4 812.819 394.4C810.285 394.4 808.419 394.333 807.219 394.2C805.219 390.2 804.019 385.4 803.619 379.8H802.619C800.085 382.2 795.619 385.267 789.219 389C782.952 392.6 777.885 394.4 774.019 394.4ZM764.019 365C764.019 369.4 765.352 372.667 768.019 374.8C770.819 376.8 773.952 377.8 777.419 377.8C780.885 377.8 785.019 376.267 789.819 373.2C794.619 370 798.485 367.133 801.419 364.6L800.419 346.2C789.885 346.733 781.952 347.733 776.619 349.2C768.219 350.933 764.019 356.2 764.019 365ZM914.431 394.4L910.031 394.2C909.231 392.733 908.165 390 906.831 386C905.498 382 904.765 379 904.631 377C903.965 363.8 903.231 340.933 902.431 308.4H888.431L889.031 297C892.098 294.867 895.765 292.933 900.031 291.2L916.231 265.6C921.431 266.133 925.498 267.533 928.431 269.8L928.231 288.8C936.631 289.067 944.431 289.867 951.631 291.2C951.631 296.533 949.965 302.267 946.631 308.4H928.031C927.498 336.4 927.165 357.4 927.031 371.4C932.365 371.933 939.631 373.467 948.831 376L948.631 386.4C946.365 387.867 941.298 389.6 933.431 391.6C925.698 393.467 919.365 394.4 914.431 394.4ZM1058.56 304C1053.76 304 1048.3 305.2 1042.16 307.6C1040.43 310.267 1038.76 315 1037.16 321.8C1035.7 328.467 1034.96 335.2 1034.96 342C1034.96 354.533 1036.83 363.467 1040.56 368.8C1044.3 374 1050.3 376.6 1058.56 376.6C1066.96 376.6 1073.03 374 1076.76 368.8C1080.5 363.467 1082.36 354.4 1082.36 341.6C1082.36 328.667 1080.43 319.2 1076.56 313.2C1072.83 307.067 1066.83 304 1058.56 304ZM1058.56 288C1074.16 288 1086.7 292.8 1096.16 302.4C1105.76 311.867 1110.56 325.133 1110.56 342.2C1110.56 359.133 1105.83 372.067 1096.36 381C1086.9 389.933 1074.3 394.4 1058.56 394.4C1042.83 394.4 1030.23 389.933 1020.76 381C1011.43 372.067 1006.76 359.133 1006.76 342.2C1006.76 325.133 1011.5 311.867 1020.96 302.4C1030.43 292.8 1042.96 288 1058.56 288ZM1213.98 362L1221.38 332.2L1231.98 306.6C1227.45 305.8 1221.85 304.067 1215.18 301.4L1216.98 290.4H1266.78C1269.85 296.533 1271.38 302.333 1271.38 307.8C1266.18 308.6 1260.98 309.133 1255.78 309.4C1253.11 318.333 1247.85 332.133 1239.98 350.8C1232.25 369.467 1227.05 383.2 1224.38 392H1198.58L1166.78 309.6L1151.18 307.8C1151.18 302.333 1152.71 296.533 1155.78 290.4H1205.58L1207.38 301.4C1201.91 303.933 1197.31 305.667 1193.58 306.6L1203.18 332L1210.18 362H1213.98Z" fill="white"/>
</svg>
